<svg width="24" height="24" viewBox="0 0 24 24" fill="none" xmlns="http://www.w3.org/2000/svg">
<path d="M23.0925 4.83001C23.0226 4.73925 22.9329 4.6657 22.8302 4.615C22.7275 4.5643 22.6145 4.53779 22.5 4.53751H5.3475L4.45875 1.93126C4.40864 1.78291 4.31335 1.65395 4.18625 1.56249C4.05914 1.47103 3.90659 1.42164 3.75 1.42126H1.5C1.30109 1.42126 1.11032 1.50028 0.96967 1.64093C0.829018 1.78159 0.75 1.97235 0.75 2.17126C0.75 2.37018 0.829018 2.56094 0.96967 2.70159C1.11032 2.84225 1.30109 2.92126 1.5 2.92126H3.21375L8.145 17.415C8.19574 17.5627 8.29131 17.6908 8.41836 17.7816C8.54541 17.8723 8.69762 17.9212 8.85375 17.9213H19.5C19.6989 17.9213 19.8897 17.8422 20.0303 17.7016C20.171 17.5609 20.25 17.3702 20.25 17.1713C20.25 16.9724 20.171 16.7816 20.0303 16.6409C19.8897 16.5003 19.6989 16.4213 19.5 16.4213H9.375L8.8275 14.805H20.25C20.4155 14.8057 20.5766 14.7517 20.7082 14.6513C20.8398 14.5509 20.9345 14.4098 20.9775 14.25L23.2275 5.48251C23.2568 5.37071 23.2599 5.25364 23.2364 5.14045C23.213 5.02726 23.1638 4.92102 23.0925 4.83001ZM19.6688 13.305H8.3325L5.8575 6.03751H21.5325L19.6688 13.305Z" fill="#959EF0"/>
<path d="M11.25 18.5588C8.59499 18.6413 8.59499 22.4925 11.25 22.5788C13.905 22.5 13.905 18.6413 11.25 18.5588ZM11.25 21.0788C11.1147 21.0788 10.985 21.025 10.8894 20.9294C10.7937 20.8338 10.74 20.704 10.74 20.5688C10.74 20.4335 10.7937 20.3038 10.8894 20.2082C10.985 20.1125 11.1147 20.0588 11.25 20.0588C11.3853 20.0588 11.515 20.1125 11.6106 20.2082C11.7063 20.3038 11.76 20.4335 11.76 20.5688C11.76 20.704 11.7063 20.8338 11.6106 20.9294C11.515 21.025 11.3853 21.0788 11.25 21.0788Z" fill="#959EF0"/>
<path d="M17.7788 18.5588C15.1238 18.6413 15.1238 22.4925 17.7788 22.5788C20.4338 22.5 20.4338 18.6413 17.7788 18.5588ZM17.7788 21.0788C17.6435 21.0788 17.5138 21.025 17.4181 20.9294C17.3225 20.8338 17.2688 20.704 17.2688 20.5688C17.2688 20.4335 17.3225 20.3038 17.4181 20.2082C17.5138 20.1125 17.6435 20.0588 17.7788 20.0588C17.914 20.0588 18.0437 20.1125 18.1394 20.2082C18.235 20.3038 18.2888 20.4335 18.2888 20.5688C18.2888 20.704 18.235 20.8338 18.1394 20.9294C18.0437 21.025 17.914 21.0788 17.7788 21.0788Z" fill="#959EF0"/>
</svg>
