<svg width="25" height="24" viewBox="0 0 25 24" fill="none" xmlns="http://www.w3.org/2000/svg">
<path d="M15.62 10.6012C19.8912 7.575 17.7987 0.795 12.5 0.75C7.1975 0.7875 5.10875 7.575 9.38375 10.5937C7.35642 11.2565 5.59018 12.5426 4.33698 14.2685C3.08378 15.9945 2.40763 18.0721 2.405 20.205C2.405 23.58 4.23875 23.8612 7.3325 22.3575C11.3037 20.52 13.7075 20.5237 17.675 22.3575C20.5588 23.7487 22.6212 23.7675 22.6025 20.205C22.598 18.0729 21.9206 15.9966 20.6668 14.2721C19.413 12.5477 17.6468 11.263 15.62 10.6012ZM8.58125 6.17625C8.58076 5.66114 8.68173 5.15098 8.8784 4.67489C9.07506 4.1988 9.36358 3.76611 9.72747 3.40152C10.0914 3.03694 10.5235 2.7476 10.9992 2.55002C11.4749 2.35244 11.9849 2.25049 12.5 2.25C17.6975 2.4675 17.6975 9.87375 12.5 10.0875C11.4623 10.0865 10.4672 9.67436 9.73276 8.94128C8.99829 8.20821 8.58422 7.21396 8.58125 6.17625ZM20.795 21.705C20.4688 21.9225 19.2463 21.3975 18.2675 20.9775C16.6775 20.2987 14.7012 19.455 12.5037 19.455C10.3062 19.455 8.33375 20.2987 6.74375 20.9775C5.76125 21.3975 4.5425 21.9225 4.21625 21.705C4.16375 21.6712 3.905 21.4387 3.905 20.205C3.905 17.9245 4.81094 15.7373 6.42351 14.1248C8.03609 12.5122 10.2232 11.6062 12.5037 11.6062C14.7843 11.6062 16.9714 12.5122 18.584 14.1248C20.1966 15.7373 21.1025 17.9245 21.1025 20.205C21.1025 21.4387 20.8438 21.6712 20.795 21.705Z" fill="#959EF0"/>
</svg>
