<svg width="24" height="24" viewBox="0 0 24 24" fill="none" xmlns="http://www.w3.org/2000/svg">
<path d="M22.5788 21.5175L17.5088 16.4475C22.7962 10.2788 18.375 0.66 10.2338 0.6675C5.0925 0.5625 0.5625 5.0925 0.6675 10.2375C0.66 18.375 10.2825 22.7962 16.4475 17.5088L21.5175 22.5788C21.6582 22.7195 21.8491 22.7985 22.0481 22.7985C22.2471 22.7985 22.438 22.7195 22.5788 22.5788C22.7195 22.438 22.7985 22.2471 22.7985 22.0481C22.7985 21.8491 22.7195 21.6582 22.5788 21.5175ZM4.53 15.9412C-0.5475 10.875 3.15 2.12625 10.2375 2.17125C11.2966 2.17013 12.3455 2.37789 13.3243 2.78263C14.303 3.18738 15.1923 3.78116 15.9412 4.53C23.1938 12.4125 12.4088 23.1938 4.53 15.9412Z" fill="#959EF0"/>
<path d="M6.86999 5.80874C6.80033 5.73901 6.71762 5.68369 6.62657 5.64595C6.53552 5.6082 6.43793 5.58878 6.33936 5.58878C6.2408 5.58878 6.14321 5.6082 6.05216 5.64595C5.96111 5.68369 5.87839 5.73901 5.80874 5.80874C4.63697 6.98405 3.97897 8.57598 3.97897 10.2356C3.97897 11.8952 4.63697 13.4872 5.80874 14.6625C5.87842 14.7322 5.96115 14.7874 6.05219 14.8252C6.14324 14.8629 6.24082 14.8823 6.33936 14.8823C6.43791 14.8823 6.53549 14.8629 6.62654 14.8252C6.71758 14.7874 6.80031 14.7322 6.86999 14.6625C6.93967 14.5928 6.99495 14.5101 7.03266 14.419C7.07037 14.328 7.08978 14.2304 7.08978 14.1319C7.08978 14.0333 7.07037 13.9357 7.03266 13.8447C6.99495 13.7536 6.93967 13.6709 6.86999 13.6012C6.42598 13.1585 6.07369 12.6325 5.83332 12.0533C5.59296 11.4742 5.46923 10.8533 5.46923 10.2262C5.46923 9.5992 5.59296 8.97831 5.83332 8.39917C6.07369 7.82002 6.42598 7.294 6.86999 6.85124C7.00517 6.71139 7.08073 6.52449 7.08073 6.32999C7.08073 6.13549 7.00517 5.94859 6.86999 5.80874Z" fill="#959EF0"/>
</svg>
